<svg width="32" height="25" viewBox="0 0 32 25" fill="none" xmlns="http://www.w3.org/2000/svg">
<g clip-path="url(#clip0_2085_327)">
<path d="M6.50785 24.5457V22.9572C6.50785 22.3482 6.13711 21.9512 5.50165 21.9512C5.18399 21.9512 4.83979 22.0571 4.60147 22.4013C4.41623 22.11 4.1515 21.9512 3.75436 21.9512C3.48951 21.9512 3.22491 22.0305 3.01301 22.3218V22.0041H2.45703V24.5457H3.01301V23.1425C3.01301 22.6925 3.25132 22.4806 3.62206 22.4806C3.99255 22.4806 4.17804 22.7189 4.17804 23.1425V24.5457H4.73402V23.1425C4.73402 22.6925 4.99862 22.4806 5.34282 22.4806C5.71355 22.4806 5.8988 22.7189 5.8988 23.1425V24.5457H6.50785ZM14.7415 22.0041H13.8415V21.2364H13.2855V22.0041H12.7825V22.507H13.2854V23.6721C13.2854 24.2546 13.5237 24.5986 14.1591 24.5986C14.3975 24.5986 14.6621 24.5193 14.8475 24.4134L14.6886 23.9368C14.5298 24.0427 14.3445 24.0692 14.2121 24.0692C13.9474 24.0692 13.8415 23.9104 13.8415 23.6455V22.507H14.7415V22.0041ZM19.4542 21.9511C19.1365 21.9511 18.9248 22.11 18.7923 22.3218V22.0041H18.2364V24.5457H18.7923V23.1161C18.7923 22.6925 18.9776 22.4542 19.3218 22.4542C19.4277 22.4542 19.5601 22.4807 19.666 22.5072L19.8248 21.9777C19.7189 21.9512 19.5601 21.9512 19.4542 21.9512V21.9511ZM12.3324 22.2159C12.0675 22.0305 11.6969 21.9512 11.2998 21.9512C10.6644 21.9512 10.2409 22.2688 10.2409 22.7719C10.2409 23.1956 10.5585 23.4337 11.1145 23.5132L11.3792 23.5398C11.6705 23.5926 11.8293 23.6721 11.8293 23.8045C11.8293 23.9897 11.6176 24.1221 11.2468 24.1221C10.8762 24.1221 10.585 23.9897 10.3996 23.8574L10.1349 24.281C10.4261 24.4928 10.8233 24.5986 11.2203 24.5986C11.9616 24.5986 12.3853 24.2546 12.3853 23.7779C12.3853 23.3279 12.0411 23.0895 11.5115 23.0102L11.2468 22.9837C11.0085 22.9571 10.8233 22.9043 10.8233 22.7455C10.8233 22.5601 11.0085 22.4542 11.2998 22.4542C11.6176 22.4542 11.9352 22.5865 12.0941 22.666L12.3324 22.2159ZM27.1056 21.9512C26.7878 21.9512 26.5761 22.11 26.4436 22.3218V22.0041H25.8877V24.5457H26.4436V23.1161C26.4436 22.6925 26.629 22.4542 26.9731 22.4542C27.0791 22.4542 27.2115 22.4807 27.3174 22.5072L27.4762 21.9777C27.3704 21.9512 27.2115 21.9512 27.1056 21.9512ZM20.0102 23.2749C20.0102 24.0427 20.5396 24.5986 21.3605 24.5986C21.7311 24.5986 21.9958 24.5193 22.2605 24.3075L21.9958 23.8574C21.784 24.0163 21.5722 24.0956 21.3339 24.0956C20.8838 24.0956 20.5662 23.7779 20.5662 23.2749C20.5662 22.7984 20.8838 22.4806 21.3339 22.4542C21.5722 22.4542 21.784 22.5336 21.9958 22.6925L22.2605 22.2424C21.9958 22.0305 21.7311 21.9512 21.3605 21.9512C20.5396 21.9512 20.0102 22.5072 20.0102 23.2749ZM25.1464 23.2749V22.0041H24.5905V22.3218C24.4051 22.0836 24.1404 21.9512 23.7962 21.9512C23.0814 21.9512 22.5254 22.5072 22.5254 23.2749C22.5254 24.0427 23.0814 24.5986 23.7962 24.5986C24.1668 24.5986 24.4316 24.4663 24.5905 24.228V24.5457H25.1464V23.2749ZM23.1078 23.2749C23.1078 22.8248 23.399 22.4542 23.8755 22.4542C24.3256 22.4542 24.6434 22.7984 24.6434 23.2749C24.6434 23.725 24.3256 24.0956 23.8755 24.0956C23.399 24.0691 23.1078 23.725 23.1078 23.2749ZM16.4625 21.9512C15.7212 21.9512 15.1916 22.4806 15.1916 23.2749C15.1916 24.0692 15.7211 24.5986 16.489 24.5986C16.8596 24.5986 17.2303 24.4928 17.5216 24.2546L17.2567 23.8574C17.0449 24.0163 16.7802 24.1221 16.5155 24.1221C16.1713 24.1221 15.8271 23.9633 15.7476 23.5131H17.6274V23.3014C17.654 22.4806 17.1774 21.9512 16.4624 21.9512H16.4625ZM16.4625 22.4277C16.8066 22.4277 17.0451 22.6396 17.0979 23.0367H15.7741C15.8271 22.6925 16.0654 22.4277 16.4625 22.4277ZM30.2561 23.2749V20.998H29.7002V22.3218C29.5148 22.0836 29.2501 21.9512 28.9059 21.9512C28.1911 21.9512 27.6351 22.5072 27.6351 23.2749C27.6351 24.0427 28.1911 24.5986 28.9059 24.5986C29.2766 24.5986 29.5413 24.4663 29.7002 24.228V24.5457H30.2561V23.2749ZM28.2176 23.2749C28.2176 22.8248 28.5087 22.4542 28.9854 22.4542C29.4354 22.4542 29.7531 22.7984 29.7531 23.2749C29.7531 23.725 29.4354 24.0956 28.9854 24.0956C28.5087 24.0691 28.2176 23.725 28.2176 23.2749ZM9.63183 23.2749V22.0041H9.07585V22.3218C8.89048 22.0836 8.62576 21.9512 8.28155 21.9512C7.56674 21.9512 7.01076 22.5072 7.01076 23.2749C7.01076 24.0427 7.56674 24.5986 8.28155 24.5986C8.65229 24.5986 8.91701 24.4663 9.07585 24.228V24.5457H9.63183V23.2749ZM7.56674 23.2749C7.56674 22.8248 7.858 22.4542 8.3345 22.4542C8.78459 22.4542 9.10238 22.7984 9.10238 23.2749C9.10238 23.725 8.78459 24.0956 8.3345 24.0956C7.858 24.0691 7.56674 23.725 7.56674 23.2749Z" fill="black"/>
<path d="M12.1465 2.70312H20.4862V17.6882H12.1465V2.70312Z" fill="#FF5F00"/>
<path d="M12.6761 10.1962C12.6761 7.15155 14.1057 4.45101 16.3031 2.70359C14.6883 1.4328 12.6497 0.665039 10.4258 0.665039C5.157 0.665039 0.894531 4.92751 0.894531 10.1962C0.894531 15.4647 5.157 19.7273 10.4257 19.7273C12.6496 19.7273 14.6881 18.9596 16.3031 17.6886C14.1057 15.9678 12.6761 13.2408 12.6761 10.1962Z" fill="#EB001B"/>
<path d="M31.7387 10.1962C31.7387 15.4647 27.4762 19.7273 22.2075 19.7273C19.9836 19.7273 17.9451 18.9596 16.3301 17.6886C18.554 15.9413 19.9572 13.2408 19.9572 10.1962C19.9572 7.15155 18.5275 4.45101 16.3301 2.70359C17.945 1.4328 19.9836 0.665039 22.2075 0.665039C27.4762 0.665039 31.7388 4.95404 31.7388 10.1962H31.7387Z" fill="#F79E1B"/>
</g>
<defs>
<clipPath id="clip0_2085_327">
<rect width="30.8744" height="24" fill="white" transform="translate(0.894531 0.665039)"/>
</clipPath>
</defs>
</svg>
